<svg xmlns="http://www.w3.org/2000/svg" xmlns:xlink="http://www.w3.org/1999/xlink" viewBox="0,0,256,256" width="50px" height="50px"><g fill="none" fill-rule="nonzero" stroke="none" stroke-width="1" stroke-linecap="butt" stroke-linejoin="miter" stroke-miterlimit="10" stroke-dasharray="" stroke-dashoffset="0" font-family="none" font-weight="none" font-size="none" text-anchor="none" style="mix-blend-mode: normal"><g transform="scale(2.56,2.56)"><path d="M13,27c-1.10457,0 -2,0.89543 -2,2c0,1.10457 0.89543,2 2,2c1.10457,0 2,-0.89543 2,-2c0,-1.10457 -0.89543,-2 -2,-2z" fill="#b62638"></path><path d="M77,12c-0.55228,0 -1,0.44772 -1,1c0,0.55228 0.44772,1 1,1c0.55228,0 1,-0.44772 1,-1c0,-0.55228 -0.44772,-1 -1,-1z" fill="#e4b218"></path><path d="M50,13c-20.43454,0 -37,16.56546 -37,37c0,20.43454 16.56546,37 37,37c20.43454,0 37,-16.56546 37,-37c0,-20.43454 -16.56546,-37 -37,-37z" fill="#e4b753"></path><path d="M83,11c-2.20914,0 -4,1.79086 -4,4c0,2.20914 1.79086,4 4,4c2.20914,0 4,-1.79086 4,-4c0,-2.20914 -1.79086,-4 -4,-4z" fill="#e4b218"></path><path d="M87,22c-1.10457,0 -2,0.89543 -2,2c0,1.10457 0.89543,2 2,2c1.10457,0 2,-0.89543 2,-2c0,-1.10457 -0.89543,-2 -2,-2z" fill="#b62638"></path><path d="M81,74c-1.10457,0 -2,0.89543 -2,2c0,1.10457 0.89543,2 2,2c1.10457,0 2,-0.89543 2,-2c0,-1.10457 -0.89543,-2 -2,-2zM15,59c-2.20914,0 -4,1.79086 -4,4c0,2.20914 1.79086,4 4,4c2.20914,0 4,-1.79086 4,-4c0,-2.20914 -1.79086,-4 -4,-4z" fill="#c69823"></path><path d="M25,85c-1.10457,0 -2,0.89543 -2,2c0,1.10457 0.89543,2 2,2c1.10457,0 2,-0.89543 2,-2c0,-1.10457 -0.89543,-2 -2,-2z" fill="#b62638"></path><path d="M18.5,51c-1.38071,0 -2.5,1.11929 -2.5,2.5c0,1.38071 1.11929,2.5 2.5,2.5c1.38071,0 2.5,-1.11929 2.5,-2.5c0,-1.38071 -1.11929,-2.5 -2.5,-2.5z" fill="#fffcf4"></path><path d="M21,66c-0.55228,0 -1,0.44772 -1,1c0,0.55228 0.44772,1 1,1c0.55228,0 1,-0.44772 1,-1c0,-0.55228 -0.44772,-1 -1,-1z" fill="#e4b218"></path><path d="M80,33c-0.55228,0 -1,0.44772 -1,1c0,0.55228 0.44772,1 1,1c0.55228,0 1,-0.44772 1,-1c0,-0.55228 -0.44772,-1 -1,-1z" fill="#fffcf4"></path><path d="M35,72.3c-4.025,0 -7.3,-3.274 -7.3,-7.3v-30c0,-4.025 3.274,-7.3 7.3,-7.3h30c4.025,0 7.3,3.274 7.3,7.3v30c0,4.025 -3.274,7.3 -7.3,7.3z" fill="#32c7e7"></path><path d="M65,28.4c3.639,0 6.6,2.961 6.6,6.6v30c0,3.639 -2.961,6.6 -6.6,6.6h-30c-3.639,0 -6.6,-2.961 -6.6,-6.6v-30c0,-3.639 2.961,-6.6 6.6,-6.6h30M65,27h-30c-4.4,0 -8,3.6 -8,8v30c0,4.4 3.6,8 8,8h30c4.4,0 8,-3.6 8,-8v-30c0,-4.4 -3.6,-8 -8,-8z" fill="#121212"></path><g fill="#121212"><path d="M68.5,47.375c-0.276,0 -0.5,-0.224 -0.5,-0.5v-3.875c0,-0.276 0.224,-0.5 0.5,-0.5c0.276,0 0.5,0.224 0.5,0.5v3.875c0,0.276 -0.224,0.5 -0.5,0.5z"></path></g><g fill="#121212"><path d="M68.5,40.5c-0.276,0 -0.5,-0.224 -0.5,-0.5v-2c0,-0.276 0.224,-0.5 0.5,-0.5c0.276,0 0.5,0.224 0.5,0.5v2c0,0.276 -0.224,0.5 -0.5,0.5z"></path></g><g><path d="M62.95,64.449c-0.401,0 -0.777,-0.155 -1.061,-0.438l-9.899,-9.899c-0.585,-0.585 -0.585,-1.537 0,-2.122c0.283,-0.283 0.66,-0.438 1.061,-0.438c0.401,0 0.777,0.155 1.061,0.438l9.899,9.899c0.585,0.585 0.585,1.537 0,2.122c-0.284,0.283 -0.66,0.438 -1.061,0.438z" fill="#f9973a"></path><path d="M53.05,52.05c0.267,0 0.518,0.104 0.707,0.293l9.9,9.899c0.189,0.189 0.293,0.44 0.293,0.707c0,0.267 -0.104,0.518 -0.293,0.707c-0.189,0.189 -0.44,0.293 -0.707,0.293c-0.267,0 -0.518,-0.104 -0.707,-0.293l-9.9,-9.899c-0.189,-0.189 -0.293,-0.44 -0.293,-0.707c0,-0.267 0.104,-0.518 0.293,-0.707c0.189,-0.189 0.44,-0.293 0.707,-0.293M53.05,51.05c-0.512,0 -1.024,0.195 -1.414,0.586c-0.781,0.781 -0.781,2.047 0,2.828l9.899,9.899c0.391,0.391 0.902,0.586 1.414,0.586c0.512,0 1.024,-0.195 1.414,-0.586c0.781,-0.781 0.781,-2.047 0,-2.828l-9.899,-9.899c-0.39,-0.39 -0.902,-0.586 -1.414,-0.586z" fill="#121212"></path></g><g fill="#121212"><path d="M64,69h-28c-2.757,0 -5,-2.243 -5,-5v-28c0,-2.757 2.243,-5 5,-5h25.375c0.276,0 0.5,0.224 0.5,0.5c0,0.276 -0.224,0.5 -0.5,0.5h-25.375c-2.206,0 -4,1.794 -4,4v28c0,2.206 1.794,4 4,4h28c2.206,0 4,-1.794 4,-4v-14.375c0,-0.276 0.224,-0.5 0.5,-0.5c0.276,0 0.5,0.224 0.5,0.5v14.375c0,2.757 -2.243,5 -5,5z"></path></g><g><path d="M46.5,35.5c-6.07513,0 -11,4.92487 -11,11c0,6.07513 4.92487,11 11,11c6.07513,0 11,-4.92487 11,-11c0,-6.07513 -4.92487,-11 -11,-11z" fill="#fadb07"></path><path d="M46.5,36c5.79,0 10.5,4.71 10.5,10.5c0,5.79 -4.71,10.5 -10.5,10.5c-5.79,0 -10.5,-4.71 -10.5,-10.5c0,-5.79 4.71,-10.5 10.5,-10.5M46.5,35c-6.351,0 -11.5,5.149 -11.5,11.5c0,6.351 5.149,11.5 11.5,11.5c6.351,0 11.5,-5.149 11.5,-11.5c0,-6.351 -5.149,-11.5 -11.5,-11.5z" fill="#121212"></path></g><g><path d="M46.5,38.5c-4.41828,0 -8,3.58172 -8,8c0,4.41828 3.58172,8 8,8c4.41828,0 8,-3.58172 8,-8c0,-4.41828 -3.58172,-8 -8,-8z" fill="#a3e5ee"></path><path d="M46.5,39c4.136,0 7.5,3.364 7.5,7.5c0,4.136 -3.364,7.5 -7.5,7.5c-4.136,0 -7.5,-3.364 -7.5,-7.5c0,-4.136 3.364,-7.5 7.5,-7.5M46.5,38c-4.694,0 -8.5,3.806 -8.5,8.5c0,4.694 3.806,8.5 8.5,8.5c4.694,0 8.5,-3.806 8.5,-8.5c0,-4.694 -3.806,-8.5 -8.5,-8.5z" fill="#121212"></path></g><g fill="#121212"><path d="M40.5,46.75c-0.138,0 -0.25,-0.112 -0.25,-0.25c0,-1.732 0.729,-3.401 1.999,-4.581c0.1,-0.093 0.259,-0.089 0.353,0.014c0.094,0.101 0.088,0.259 -0.013,0.354c-1.168,1.084 -1.838,2.62 -1.838,4.214c-0.001,0.137 -0.113,0.249 -0.251,0.249z"></path></g><g fill="#121212"><path d="M43.766,41.407c-0.091,0 -0.178,-0.05 -0.223,-0.136c-0.063,-0.123 -0.014,-0.273 0.109,-0.337c0.887,-0.454 1.845,-0.685 2.848,-0.685c0.138,0 0.25,0.112 0.25,0.25c0,0.138 -0.112,0.25 -0.25,0.25c-0.923,0 -1.804,0.212 -2.62,0.63c-0.036,0.019 -0.075,0.028 -0.114,0.028z"></path></g><g fill="#121212"><path d="M50.582,51.147c-0.067,0 -0.134,-0.026 -0.183,-0.08c-0.094,-0.101 -0.088,-0.259 0.013,-0.354c1.168,-1.084 1.838,-2.62 1.838,-4.214c0,-0.138 0.112,-0.25 0.25,-0.25c0.138,0 0.25,0.112 0.25,0.25c0,1.732 -0.729,3.401 -1.999,4.581c-0.047,0.045 -0.108,0.067 -0.169,0.067z"></path></g><g fill="#121212"><path d="M46.5,52.75c-0.138,0 -0.25,-0.112 -0.25,-0.25c0,-0.138 0.112,-0.25 0.25,-0.25c0.923,0 1.804,-0.212 2.62,-0.63c0.122,-0.06 0.273,-0.013 0.336,0.108c0.063,0.123 0.014,0.273 -0.109,0.337c-0.886,0.455 -1.845,0.685 -2.847,0.685z"></path></g></g></g></svg>